<?xml version="1.0" encoding="UTF-8"?>
<!DOCTYPE svg PUBLIC "-//W3C//DTD SVG 1.1//EN" "http://www.w3.org/Graphics/SVG/1.1/DTD/svg11.dtd">
<svg xmlns="http://www.w3.org/2000/svg" version="1.1" width="2944px" height="2570px" style="shape-rendering:geometricPrecision; text-rendering:geometricPrecision; image-rendering:optimizeQuality; fill-rule:evenodd; clip-rule:evenodd" xmlns:xlink="http://www.w3.org/1999/xlink">
<g><path style="opacity:0.985" fill="#000000" d="M 1470.5,-0.5 C 1471.17,-0.5 1471.83,-0.5 1472.5,-0.5C 1601.03,96.8921 1694.53,220.892 1753,371.5C 1760.07,389.882 1766.24,408.549 1771.5,427.5C 1791.57,414.619 1811.57,401.452 1831.5,388C 1968.19,304.166 2116.86,262.666 2277.5,263.5C 2334.91,462.391 2322.41,656.725 2240,846.5C 2173.35,992.143 2073.85,1109.98 1941.5,1200C 2109.99,1202.06 2263.99,1249.73 2403.5,1343C 2353.5,1343.67 2303.5,1343.67 2253.5,1343C 2084.52,1267.55 1910.52,1253.55 1731.5,1301C 1692.8,1311.9 1655.13,1325.57 1618.5,1342C 1569.5,1366.17 1520.5,1390.33 1471.5,1414.5C 1422.5,1390.33 1373.5,1366.17 1324.5,1342C 1143.76,1262.66 959.09,1252.33 770.5,1311C 742.694,1320.49 715.36,1331.16 688.5,1343C 638.833,1343.67 589.167,1343.67 539.5,1343C 679.012,1249.73 833.012,1202.06 1001.5,1200C 848.487,1095.61 740.32,956.109 677,781.5C 625.82,632.435 616.486,480.769 649,326.5C 653.721,305.284 659.221,284.284 665.5,263.5C 851.474,263.106 1019.14,317.606 1168.5,427C 1169.45,427.483 1170.45,427.649 1171.5,427.5C 1216.36,279.531 1295.7,153.698 1409.5,50C 1429.54,32.6709 1449.87,15.8376 1470.5,-0.5 Z M 1470.5,94.5 C 1589.48,197.189 1669.15,325.022 1709.5,478C 1693.13,495.372 1676.3,512.538 1659,529.5C 1572.7,623.488 1510.2,731.821 1471.5,854.5C 1425.35,708.446 1346.18,583.78 1234,480.5C 1233.83,479.667 1233.67,478.833 1233.5,478C 1274.12,325.833 1353.12,198 1470.5,94.5 Z M 721.5,337.5 C 882.627,350.237 1025.96,406.737 1151.5,507C 1111.68,718.864 1146.18,917.697 1255,1103.5C 1290.4,1160.92 1331.9,1213.76 1379.5,1262C 1183.89,1237.62 1021.06,1152.12 891,1005.5C 749.302,837.192 688.302,642.858 708,422.5C 711.245,393.951 715.745,365.618 721.5,337.5 Z M 2207.5,338.5 C 2212.17,338.5 2216.83,338.5 2221.5,338.5C 2263.64,543.313 2230.14,734.646 2121,912.5C 2009.13,1084.59 1853.3,1196.09 1653.5,1247C 1623.85,1254.39 1593.85,1259.39 1563.5,1262C 1713.56,1108.64 1794.72,924.141 1807,708.5C 1809.86,640.489 1804.86,573.156 1792,506.5C 1913.53,409.577 2052.03,353.577 2207.5,338.5 Z M 1215.5,565.5 C 1343.22,697.671 1415.39,856.004 1432,1040.5C 1436.4,1095.69 1434.73,1150.69 1427,1205.5C 1272.67,1043.26 1200.34,849.594 1210,624.5C 1211.31,604.776 1213.14,585.11 1215.5,565.5 Z M 1726.5,565.5 C 1751.93,762.229 1709.09,942.562 1598,1106.5C 1573.31,1141.54 1545.97,1174.54 1516,1205.5C 1489.87,990.653 1542.2,797.653 1673,626.5C 1689.92,605.406 1707.76,585.073 1726.5,565.5 Z"/></g>
<g><path style="opacity:0.929" fill="#000000" d="M 522.5,715.5 C 523.376,715.369 524.043,715.702 524.5,716.5C 527.98,724.067 529.48,732.067 529,740.5C 531.504,755.978 539.67,767.144 553.5,774C 563.927,777.405 574.593,779.738 585.5,781C 574.895,783.987 564.228,786.987 553.5,790C 543.936,793.898 537.436,800.731 534,810.5C 529.592,823.545 526.592,836.879 525,850.5C 523.083,847.085 521.75,843.419 521,839.5C 519.853,825.75 516.186,812.75 510,800.5C 505.961,795.125 500.794,791.291 494.5,789C 484.181,786.204 473.848,783.537 463.5,781C 474.777,779.945 485.777,777.611 496.5,774C 507.555,768.086 514.389,758.92 517,746.5C 519.544,736.281 521.377,725.948 522.5,715.5 Z"/></g>
<g><path style="opacity:0.912" fill="#000000" d="M 370.5,797.5 C 373.385,806.702 376.218,816.035 379,825.5C 380.5,827 382,828.5 383.5,830C 392.119,833.87 400.786,837.537 409.5,841C 385.32,845.007 372.654,859.174 371.5,883.5C 369.515,881.543 368.015,879.21 367,876.5C 365.636,868.969 363.636,861.636 361,854.5C 352.609,846.252 342.442,842.086 330.5,842C 332.156,840.171 334.156,838.837 336.5,838C 350.321,836.507 359.821,829.34 365,816.5C 366.522,810.04 368.356,803.706 370.5,797.5 Z"/></g>
<g><path style="opacity:0.885" fill="#000000" d="M 2457.5,812.5 C 2459.17,812.5 2460.83,812.5 2462.5,812.5C 2460.87,819.794 2462.87,825.961 2468.5,831C 2474.53,833.684 2480.53,836.35 2486.5,839C 2482.36,841.05 2478.02,842.716 2473.5,844C 2471.25,845.377 2469.08,846.877 2467,848.5C 2463.96,854.693 2461.3,861.026 2459,867.5C 2457.86,860.732 2455.52,854.399 2452,848.5C 2450.79,846.951 2449.29,845.785 2447.5,845C 2441.62,843.595 2435.95,841.595 2430.5,839C 2436.93,837.077 2443.26,834.743 2449.5,832C 2454.35,826.431 2457.02,819.931 2457.5,812.5 Z"/></g>
<g><path style="opacity:0.933" fill="#000000" d="M 2560.5,877.5 C 2562.61,878.36 2563.78,880.027 2564,882.5C 2565.67,892.167 2567.33,901.833 2569,911.5C 2572.18,924.013 2579.68,932.846 2591.5,938C 2602.2,940.874 2612.87,943.874 2623.5,947C 2613.13,948.809 2602.8,951.142 2592.5,954C 2581.46,957.442 2573.96,964.608 2570,975.5C 2567.16,985.711 2564.82,996.044 2563,1006.5C 2562.25,1008.33 2561.25,1010 2560,1011.5C 2558.68,996.539 2555.01,982.205 2549,968.5C 2545.38,961.549 2539.88,956.716 2532.5,954C 2523.61,951.796 2514.61,950.129 2505.5,949C 2502.82,948.751 2500.49,947.751 2498.5,946C 2509.04,942.908 2519.71,940.241 2530.5,938C 2542.65,932.519 2550.48,923.352 2554,910.5C 2555.94,899.428 2558.1,888.428 2560.5,877.5 Z"/></g>
<g><path style="opacity:0.892" fill="#000000" d="M 437.5,883.5 C 438.458,883.953 439.292,884.619 440,885.5C 442.193,892.725 446.026,898.892 451.5,904C 457.544,905.902 463.544,907.736 469.5,909.5C 462.557,912.338 455.557,915.338 448.5,918.5C 445.632,925.249 442.466,931.916 439,938.5C 436.701,933.327 434.701,927.994 433,922.5C 430.833,920.333 428.667,918.167 426.5,916C 420.737,914.147 415.071,912.147 409.5,910C 415.752,907.138 422.085,904.472 428.5,902C 433.512,896.809 436.512,890.642 437.5,883.5 Z"/></g>
<g><path style="opacity:0.923" fill="#000000" d="M 2421.5,887.5 C 2425.97,893.608 2427.8,900.608 2427,908.5C 2428.87,922.766 2436.03,933.266 2448.5,940C 2457.3,943.094 2466.3,945.427 2475.5,947C 2465.61,950.306 2455.61,953.306 2445.5,956C 2435.85,961.767 2430.02,970.267 2428,981.5C 2426.49,990.912 2424.65,1000.25 2422.5,1009.5C 2421.81,1008.97 2421.31,1008.31 2421,1007.5C 2419.5,995.982 2417.16,984.649 2414,973.5C 2409.88,967.709 2405.38,962.209 2400.5,957C 2398.5,956 2396.5,955 2394.5,954C 2385.24,951.512 2375.9,949.345 2366.5,947.5C 2376.27,945.14 2385.93,942.307 2395.5,939C 2407.08,933.404 2414.25,924.237 2417,911.5C 2418.7,903.515 2420.2,895.515 2421.5,887.5 Z"/></g>
<g><path style="opacity:0.908" fill="#000000" d="M 351.5,1018.5 C 353.335,1019.12 354.502,1020.46 355,1022.5C 356.847,1028.89 358.847,1035.23 361,1041.5C 362.5,1043 364,1044.5 365.5,1046C 373.464,1049.91 381.798,1052.74 390.5,1054.5C 389.335,1055.58 388.002,1056.42 386.5,1057C 376.815,1057.78 368.648,1061.61 362,1068.5C 358.967,1077.32 355.633,1085.98 352,1094.5C 349.336,1086.54 346.669,1078.54 344,1070.5C 341.5,1068 339,1065.5 336.5,1063C 329.44,1060.56 322.44,1058.06 315.5,1055.5C 322.798,1051.79 330.464,1048.95 338.5,1047C 339.5,1046.17 340.5,1045.33 341.5,1044.5C 345.429,1036.04 348.762,1027.38 351.5,1018.5 Z"/></g>
<g><path style="opacity:0.95" fill="#000000" d="M 499.5,1022.5 C 501.042,1023.3 502.708,1023.63 504.5,1023.5C 503.168,1050.84 509.668,1076.17 524,1099.5C 528.629,1105.13 534.129,1109.63 540.5,1113C 556.401,1117.71 572.401,1122.05 588.5,1126C 574.554,1127.27 560.887,1129.94 547.5,1134C 537.716,1137.12 529.55,1142.62 523,1150.5C 511.569,1169.88 505.569,1190.88 505,1213.5C 502.716,1228.12 500.382,1228.12 498,1213.5C 497.099,1196.66 493.766,1180.33 488,1164.5C 479.409,1143.93 463.909,1132.43 441.5,1130C 433.694,1128.94 426.028,1127.6 418.5,1126C 432.634,1122.3 446.634,1117.96 460.5,1113C 476.567,1103.92 487.067,1090.42 492,1072.5C 495.411,1055.97 497.911,1039.3 499.5,1022.5 Z"/></g>
<g><path style="opacity:0.947" fill="#000000" d="M 2481.5,1025.5 C 2482.97,1026.35 2483.8,1027.68 2484,1029.5C 2486.18,1045.58 2488.84,1061.58 2492,1077.5C 2495.48,1093.34 2503.98,1105.51 2517.5,1114C 2523.85,1117.45 2530.51,1120.12 2537.5,1122C 2552.6,1124.58 2567.6,1127.25 2582.5,1130C 2576.4,1132.95 2570.07,1133.78 2563.5,1132.5C 2549.72,1133.78 2536.39,1136.94 2523.5,1142C 2513.44,1146.4 2505.61,1153.23 2500,1162.5C 2490.56,1182.04 2485.56,1202.71 2485,1224.5C 2484.6,1228.02 2483.6,1231.35 2482,1234.5C 2479.76,1221.63 2477.76,1208.63 2476,1195.5C 2475.37,1191.45 2473.87,1187.78 2471.5,1184.5C 2469.37,1160.83 2456.7,1145.66 2433.5,1139C 2418.64,1135.77 2403.64,1133.43 2388.5,1132C 2385.99,1131.62 2383.66,1130.79 2381.5,1129.5C 2399.73,1127.18 2417.73,1123.68 2435.5,1119C 2454.91,1112.59 2467.07,1099.42 2472,1079.5C 2476.05,1061.61 2479.22,1043.61 2481.5,1025.5 Z"/></g>
<g><path style="opacity:0.894" fill="#000000" d="M 2633.5,1055.5 C 2634.38,1055.37 2635.04,1055.7 2635.5,1056.5C 2637.74,1064.15 2641.4,1070.98 2646.5,1077C 2652.8,1079.6 2659.14,1082.1 2665.5,1084.5C 2664.91,1085.8 2663.91,1086.63 2662.5,1087C 2654.74,1087.69 2648.24,1090.86 2643,1096.5C 2640.06,1103.4 2637.56,1110.4 2635.5,1117.5C 2634.91,1117.29 2634.41,1116.96 2634,1116.5C 2633.73,1106.87 2630.23,1098.7 2623.5,1092C 2616.75,1088.9 2609.75,1086.56 2602.5,1085C 2610.1,1082.58 2617.43,1079.58 2624.5,1076C 2629.52,1070.12 2632.52,1063.29 2633.5,1055.5 Z"/></g>
<g><path style="opacity:0.98" fill="#000000" d="M -0.5,2196.5 C -0.5,2191.83 -0.5,2187.17 -0.5,2182.5C 32.9521,2181.36 60.4521,2168.02 82,2142.5C 105.817,2113.23 124.817,2080.89 139,2045.5C 217.832,1845.5 295.832,1645.17 373,1444.5C 384.085,1443.51 395.252,1443.18 406.5,1443.5C 489.031,1643.92 571.864,1844.25 655,2044.5C 664.28,2065.67 673.946,2086.67 684,2107.5C 691.426,2121.36 700.093,2134.36 710,2146.5C 721.981,2159.58 736.481,2168.74 753.5,2174C 770.286,2178.19 787.286,2181.19 804.5,2183C 805.467,2187.4 805.8,2191.9 805.5,2196.5C 684.5,2196.5 563.5,2196.5 442.5,2196.5C 442.5,2191.83 442.5,2187.17 442.5,2182.5C 465.408,2181.69 487.408,2176.85 508.5,2168C 537.779,2150.26 549.279,2124.43 543,2090.5C 540.478,2078.93 537.145,2067.6 533,2056.5C 511.167,2002.83 489.333,1949.17 467.5,1895.5C 386.835,1894.33 306.169,1894.17 225.5,1895C 206.868,1943.89 188.034,1992.73 169,2041.5C 164.564,2055.58 161.231,2069.91 159,2084.5C 154.451,2119.88 166.618,2147.71 195.5,2168C 211.309,2176.87 228.309,2181.87 246.5,2183C 247.467,2187.4 247.8,2191.9 247.5,2196.5C 164.833,2196.5 82.1667,2196.5 -0.5,2196.5 Z M 342.5,1588.5 C 343.497,1588.47 344.164,1588.97 344.5,1590C 382.601,1683.36 420.268,1776.86 457.5,1870.5C 383.166,1870.67 308.833,1870.5 234.5,1870C 271.192,1776.42 307.192,1682.59 342.5,1588.5 Z"/></g>
<g><path style="opacity:0.988" fill="#000000" d="M 819.5,1443.5 C 935.167,1443.33 1050.83,1443.5 1166.5,1444C 1205.73,1444.74 1244.4,1449.74 1282.5,1459C 1338.53,1473.41 1379.7,1506.24 1406,1557.5C 1422.05,1595.89 1426.05,1635.56 1418,1676.5C 1402.49,1738.01 1364.99,1779.85 1305.5,1802C 1288.05,1807.95 1270.38,1813.11 1252.5,1817.5C 1270.79,1825.55 1287.29,1836.22 1302,1849.5C 1307.72,1856.22 1313.05,1863.22 1318,1870.5C 1351.32,1937.14 1384.65,2003.8 1418,2070.5C 1432.96,2100.09 1450.29,2128.09 1470,2154.5C 1485.19,2172.68 1504.69,2182.18 1528.5,2183C 1529.47,2187.4 1529.8,2191.9 1529.5,2196.5C 1468.5,2196.67 1407.5,2196.5 1346.5,2196C 1323.26,2145.03 1300.43,2093.86 1278,2042.5C 1259.13,2001.76 1238.47,1962.1 1216,1923.5C 1203.55,1903.05 1189.55,1883.71 1174,1865.5C 1155.19,1844.51 1131.69,1832.68 1103.5,1830C 1087.52,1828.9 1071.52,1828.4 1055.5,1828.5C 1055.33,1901.83 1055.5,1975.17 1056,2048.5C 1056.24,2069.41 1058.58,2090.08 1063,2110.5C 1073.15,2144.65 1095.32,2166.82 1129.5,2177C 1143.29,2180.46 1157.29,2182.46 1171.5,2183C 1172.47,2187.4 1172.8,2191.9 1172.5,2196.5C 1054.83,2196.5 937.167,2196.5 819.5,2196.5C 819.2,2191.9 819.533,2187.4 820.5,2183C 840.602,2182.58 859.935,2178.58 878.5,2171C 914.379,2151.37 932.545,2120.87 933,2079.5C 934.012,2066.19 934.678,2052.85 935,2039.5C 935.667,1893.17 935.667,1746.83 935,1600.5C 935.058,1576.25 932.725,1552.25 928,1528.5C 914.258,1486.69 885.425,1463.53 841.5,1459C 834.516,1458.17 827.516,1457.5 820.5,1457C 819.533,1452.6 819.2,1448.1 819.5,1443.5 Z M 1055.5,1461.5 C 1090.33,1460.41 1125,1462.25 1159.5,1467C 1203.71,1474.9 1237.21,1498.07 1260,1536.5C 1285.72,1581.48 1293.72,1629.48 1284,1680.5C 1271.85,1734.35 1241.68,1774.52 1193.5,1801C 1172.99,1809.2 1151.65,1813.53 1129.5,1814C 1104.85,1815.25 1080.18,1815.75 1055.5,1815.5C 1055.5,1697.5 1055.5,1579.5 1055.5,1461.5 Z"/></g>
<g><path style="opacity:0.988" fill="#000000" d="M 1549.5,1443.5 C 1665.17,1443.33 1780.83,1443.5 1896.5,1444C 1934.33,1444.73 1971.67,1449.4 2008.5,1458C 2059.77,1470.32 2099.61,1498.48 2128,1542.5C 2151.96,1587.48 2157.96,1634.82 2146,1684.5C 2133.37,1729.12 2107.2,1763.29 2067.5,1787C 2040.3,1801.23 2011.63,1811.4 1981.5,1817.5C 2016.49,1831 2041.99,1854.66 2058,1888.5C 2093.24,1963.65 2130.57,2037.65 2170,2110.5C 2181.43,2131.94 2195.93,2151.1 2213.5,2168C 2227.05,2177.14 2242.05,2182.14 2258.5,2183C 2259.47,2187.4 2259.8,2191.9 2259.5,2196.5C 2198.5,2196.67 2137.5,2196.5 2076.5,2196C 2054.42,2148.1 2032.92,2099.93 2012,2051.5C 1991.66,2006.48 1968.99,1962.81 1944,1920.5C 1928.82,1895.31 1910.65,1872.48 1889.5,1852C 1873.09,1839.13 1854.42,1831.8 1833.5,1830C 1817.52,1828.9 1801.52,1828.4 1785.5,1828.5C 1785.33,1902.83 1785.5,1977.17 1786,2051.5C 1786.13,2072.83 1788.79,2093.83 1794,2114.5C 1806.34,2149.84 1830.84,2171.34 1867.5,2179C 1878.73,2181.23 1890.06,2182.4 1901.5,2182.5C 1901.5,2187.17 1901.5,2191.83 1901.5,2196.5C 1784.17,2196.5 1666.83,2196.5 1549.5,2196.5C 1549.2,2191.9 1549.53,2187.4 1550.5,2183C 1626.08,2179.75 1663.91,2140.25 1664,2064.5C 1665.11,1983.01 1665.61,1901.51 1665.5,1820C 1665.61,1738.49 1665.11,1656.99 1664,1575.5C 1663.76,1553.74 1659.76,1532.74 1652,1512.5C 1635.05,1480.09 1608.22,1462.26 1571.5,1459C 1564.2,1457.96 1556.87,1457.46 1549.5,1457.5C 1549.5,1452.83 1549.5,1448.17 1549.5,1443.5 Z M 1785.5,1461.5 C 1820.33,1460.41 1855,1462.25 1889.5,1467C 1926.46,1473.22 1956.29,1491.05 1979,1520.5C 2015.72,1572.8 2026.39,1630.13 2011,1692.5C 1996.66,1740.72 1967.49,1776.89 1923.5,1801C 1902.99,1809.2 1881.66,1813.53 1859.5,1814C 1834.85,1815.25 1810.18,1815.75 1785.5,1815.5C 1785.5,1697.5 1785.5,1579.5 1785.5,1461.5 Z"/></g>
<g><path style="opacity:0.98" fill="#000000" d="M 2943.5,1976.5 C 2943.5,1984.5 2943.5,1992.5 2943.5,2000.5C 2941.15,2065.37 2938.82,2130.37 2936.5,2195.5C 2717.17,2196.5 2497.83,2196.83 2278.5,2196.5C 2278.2,2191.9 2278.53,2187.4 2279.5,2183C 2298.03,2182.45 2316.03,2179.12 2333.5,2173C 2367.25,2157.22 2386.42,2130.72 2391,2093.5C 2392.4,2082.87 2393.4,2072.2 2394,2061.5C 2394.67,1900.5 2394.67,1739.5 2394,1578.5C 2393.86,1555.31 2389.53,1532.98 2381,1511.5C 2363.89,1480.1 2337.39,1462.6 2301.5,1459C 2294.19,1458.13 2286.85,1457.46 2279.5,1457C 2278.53,1452.6 2278.2,1448.1 2278.5,1443.5C 2476.17,1443.5 2673.83,1443.5 2871.5,1443.5C 2874.6,1504.49 2877.6,1565.49 2880.5,1626.5C 2876.09,1626.94 2871.76,1626.94 2867.5,1626.5C 2863.37,1597.95 2854.54,1570.95 2841,1545.5C 2814.41,1503.44 2776.58,1477.6 2727.5,1468C 2714.25,1465.68 2700.92,1464.01 2687.5,1463C 2630.18,1461.58 2572.85,1461.08 2515.5,1461.5C 2515.5,1571.5 2515.5,1681.5 2515.5,1791.5C 2537.5,1791.67 2559.5,1791.5 2581.5,1791C 2598.5,1790.38 2615.17,1787.71 2631.5,1783C 2657.27,1772.9 2675.44,1755.06 2686,1729.5C 2693.2,1707.01 2698.03,1684.01 2700.5,1660.5C 2704.83,1660.5 2709.17,1660.5 2713.5,1660.5C 2713.02,1759.17 2712.35,1857.83 2711.5,1956.5C 2706.9,1956.8 2702.4,1956.47 2698,1955.5C 2695.52,1930.08 2689.85,1905.41 2681,1881.5C 2664.22,1841.73 2634.38,1818.9 2591.5,1813C 2566.26,1810.01 2540.93,1808.85 2515.5,1809.5C 2515.1,1877.84 2515.6,1946.18 2517,2014.5C 2517.18,2043.07 2522.18,2070.74 2532,2097.5C 2551.82,2139.96 2584.99,2165.12 2631.5,2173C 2683.92,2181.84 2735.92,2179.84 2787.5,2167C 2841.92,2150.59 2880.75,2116.42 2904,2064.5C 2915.61,2036.41 2924.27,2007.41 2930,1977.5C 2934.4,1976.53 2938.9,1976.2 2943.5,1976.5 Z"/></g>
<g><path style="opacity:0.96" fill="#000000" d="M -0.5,2340.5 C 43.1679,2340.33 86.8346,2340.5 130.5,2341C 169.728,2346.28 185.895,2368.44 179,2407.5C 172.67,2425.16 160.504,2436.66 142.5,2442C 179.884,2446.21 199.551,2467.05 201.5,2504.5C 199.526,2542.31 179.526,2561.81 141.5,2563C 94.1678,2563.5 46.8345,2563.67 -0.5,2563.5C -0.5,2562.17 -0.5,2560.83 -0.5,2559.5C 21.2373,2558.6 32.404,2547.26 33,2525.5C 33.6667,2476.83 33.6667,2428.17 33,2379.5C 33.0279,2357.03 21.8612,2345.7 -0.5,2345.5C -0.5,2343.83 -0.5,2342.17 -0.5,2340.5 Z M 69.5,2346.5 C 82.538,2346.17 95.538,2346.67 108.5,2348C 125.399,2352.57 135.899,2363.4 140,2380.5C 144.309,2397.07 141.642,2412.4 132,2426.5C 123.731,2435.22 113.565,2440.05 101.5,2441C 90.8699,2442.24 80.2032,2442.74 69.5,2442.5C 69.5,2410.5 69.5,2378.5 69.5,2346.5 Z M 69.5,2448.5 C 83.1707,2448.33 96.8374,2448.5 110.5,2449C 137.987,2449.83 154.487,2463.66 160,2490.5C 165.913,2532.24 147.913,2554.58 106,2557.5C 82.3782,2558.55 70.3782,2547.21 70,2523.5C 69.5,2498.5 69.3334,2473.5 69.5,2448.5 Z"/></g>
<g><path style="opacity:0.942" fill="#000000" d="M 306.5,2340.5 C 365.167,2340.5 423.833,2340.5 482.5,2340.5C 483.468,2358.83 484.468,2377.17 485.5,2395.5C 483.833,2395.5 482.167,2395.5 480.5,2395.5C 476.335,2365.84 459.335,2349.67 429.5,2347C 412.17,2346.5 394.837,2346.33 377.5,2346.5C 377.5,2378.83 377.5,2411.17 377.5,2443.5C 387.208,2443.74 396.874,2443.24 406.5,2442C 416.321,2440.18 423.154,2434.68 427,2425.5C 429.077,2418.61 430.577,2411.61 431.5,2404.5C 432.833,2404.5 434.167,2404.5 435.5,2404.5C 435.5,2433.83 435.5,2463.17 435.5,2492.5C 433.833,2492.5 432.167,2492.5 430.5,2492.5C 428.13,2459.47 410.463,2445.14 377.5,2449.5C 377.333,2470.5 377.5,2491.5 378,2512.5C 378.179,2538.39 391.012,2553.23 416.5,2557C 462.556,2563.89 490.056,2544.72 499,2499.5C 500.049,2497.89 501.549,2497.23 503.5,2497.5C 503.508,2519.42 502.841,2541.25 501.5,2563C 436.501,2563.5 371.501,2563.67 306.5,2563.5C 306.227,2561.55 306.893,2560.05 308.5,2559C 326.481,2558.35 336.981,2549.18 340,2531.5C 340.667,2478.5 340.667,2425.5 340,2372.5C 336.749,2353.75 325.582,2344.75 306.5,2345.5C 306.5,2343.83 306.5,2342.17 306.5,2340.5 Z"/></g>
<g><path style="opacity:0.94" fill="#000000" d="M 696.5,2340.5 C 700.226,2340.18 703.893,2340.51 707.5,2341.5C 732.293,2400.38 756.793,2459.38 781,2518.5C 784.394,2526.29 788.061,2533.95 792,2541.5C 799.515,2553.18 810.349,2559.01 824.5,2559C 825.38,2560.36 825.714,2561.86 825.5,2563.5C 789.5,2563.5 753.5,2563.5 717.5,2563.5C 717.286,2561.86 717.62,2560.36 718.5,2559C 728.549,2558.99 737.049,2555.49 744,2548.5C 747.848,2541.85 748.514,2534.85 746,2527.5C 739.22,2509.82 732.053,2492.32 724.5,2475C 700.826,2474.17 677.16,2474.33 653.5,2475.5C 648,2489.83 642.5,2504.17 637,2518.5C 633.282,2528.05 633.282,2537.38 637,2546.5C 642.324,2554.42 649.824,2558.58 659.5,2559C 660.38,2560.36 660.714,2561.86 660.5,2563.5C 635.833,2563.5 611.167,2563.5 586.5,2563.5C 586.286,2561.86 586.62,2560.36 587.5,2559C 598.52,2557.66 607.353,2552.49 614,2543.5C 618.759,2536.99 622.759,2529.99 626,2522.5C 650,2461.99 673.5,2401.33 696.5,2340.5 Z M 687.5,2385.5 C 689.284,2386.57 690.451,2388.24 691,2390.5C 701.069,2415.54 711.236,2440.54 721.5,2465.5C 700.177,2466.5 678.844,2466.83 657.5,2466.5C 667.5,2439.5 677.5,2412.5 687.5,2385.5 Z"/></g>
<g><path style="opacity:0.939" fill="#000000" d="M 1036.5,2569.5 C 1032.5,2569.5 1028.5,2569.5 1024.5,2569.5C 1002.85,2569.53 982.85,2563.7 964.5,2552C 953.432,2542.7 946.932,2530.87 945,2516.5C 944.667,2472.83 944.333,2429.17 944,2385.5C 945.8,2370.2 940.634,2358.03 928.5,2349C 922.45,2346.36 916.117,2345.19 909.5,2345.5C 909.5,2343.83 909.5,2342.17 909.5,2340.5C 944.5,2340.5 979.5,2340.5 1014.5,2340.5C 1014.5,2342.17 1014.5,2343.83 1014.5,2345.5C 997.65,2344.87 986.816,2352.54 982,2368.5C 980.873,2393.31 980.373,2418.14 980.5,2443C 980.384,2468.52 980.884,2494.02 982,2519.5C 988.693,2549.02 1007.19,2563.36 1037.5,2562.5C 1062.04,2563.05 1082.87,2554.72 1100,2537.5C 1103.5,2532.34 1105.83,2526.67 1107,2520.5C 1108.12,2495.19 1108.62,2469.86 1108.5,2444.5C 1108.62,2419.48 1108.12,2394.48 1107,2369.5C 1102.62,2352.97 1091.79,2344.97 1074.5,2345.5C 1074.5,2343.83 1074.5,2342.17 1074.5,2340.5C 1099.83,2340.5 1125.17,2340.5 1150.5,2340.5C 1150.5,2342.17 1150.5,2343.83 1150.5,2345.5C 1133.89,2344.54 1123.06,2351.87 1118,2367.5C 1116.7,2412.13 1116.03,2456.8 1116,2501.5C 1117.85,2520.31 1112.01,2536.14 1098.5,2549C 1079.94,2562.35 1059.28,2569.19 1036.5,2569.5 Z"/></g>
<g><path style="opacity:0.957" fill="#000000" d="M 1242.5,2340.5 C 1316.17,2340.5 1389.83,2340.5 1463.5,2340.5C 1464.87,2360.81 1465.87,2381.14 1466.5,2401.5C 1464.83,2401.5 1463.17,2401.5 1461.5,2401.5C 1458.66,2371.29 1442.33,2353.79 1412.5,2349C 1398.57,2347.05 1384.57,2346.22 1370.5,2346.5C 1370.04,2408.85 1370.54,2471.19 1372,2533.5C 1375.84,2549.99 1386.34,2558.49 1403.5,2559C 1405.11,2560.05 1405.77,2561.55 1405.5,2563.5C 1370.5,2563.5 1335.5,2563.5 1300.5,2563.5C 1300.29,2561.86 1300.62,2560.36 1301.5,2559C 1318.39,2558.83 1328.89,2550.66 1333,2534.5C 1334.47,2471.86 1334.97,2409.19 1334.5,2346.5C 1315.93,2346.12 1297.6,2347.95 1279.5,2352C 1263.86,2357.64 1253.7,2368.47 1249,2384.5C 1247.19,2390.1 1245.69,2395.77 1244.5,2401.5C 1242.83,2401.5 1241.17,2401.5 1239.5,2401.5C 1240.8,2381.19 1241.8,2360.85 1242.5,2340.5 Z"/></g>
<g><path style="opacity:0.948" fill="#000000" d="M 1545.5,2340.5 C 1581.17,2340.5 1616.83,2340.5 1652.5,2340.5C 1652.5,2342.17 1652.5,2343.83 1652.5,2345.5C 1627.16,2344.52 1620.33,2355.19 1632,2377.5C 1647.33,2401.5 1662.67,2425.5 1678,2449.5C 1691.33,2428.83 1704.67,2408.17 1718,2387.5C 1723.77,2379.75 1726.1,2371.08 1725,2361.5C 1721.2,2349.83 1713.04,2344.5 1700.5,2345.5C 1700.5,2343.83 1700.5,2342.17 1700.5,2340.5C 1725.5,2340.5 1750.5,2340.5 1775.5,2340.5C 1775.5,2342.17 1775.5,2343.83 1775.5,2345.5C 1769.47,2345.59 1763.8,2347.09 1758.5,2350C 1752.67,2354.5 1747.5,2359.67 1743,2365.5C 1722.34,2394.82 1702.67,2424.82 1684,2455.5C 1682.87,2468.61 1682.37,2481.78 1682.5,2495C 1682.67,2506.83 1682.83,2518.67 1683,2530.5C 1685.91,2549.57 1697.07,2559.23 1716.5,2559.5C 1716.5,2560.83 1716.5,2562.17 1716.5,2563.5C 1681.5,2563.5 1646.5,2563.5 1611.5,2563.5C 1611.29,2561.86 1611.62,2560.36 1612.5,2559C 1631.92,2558.57 1642.76,2548.74 1645,2529.5C 1645.95,2509.12 1645.62,2488.78 1644,2468.5C 1641.32,2459.5 1637.32,2451.17 1632,2443.5C 1613,2415.17 1594,2386.83 1575,2358.5C 1567.41,2349.12 1557.58,2344.79 1545.5,2345.5C 1545.5,2343.83 1545.5,2342.17 1545.5,2340.5 Z"/></g>
<g><path style="opacity:0.96" fill="#000000" d="M 2110.5,2340.5 C 2154.5,2340.33 2198.5,2340.5 2242.5,2341C 2281.29,2346.12 2297.45,2367.95 2291,2406.5C 2288.21,2415.62 2283.38,2423.45 2276.5,2430C 2269.46,2434.52 2262.12,2438.52 2254.5,2442C 2291.73,2446.32 2311.4,2467.15 2313.5,2504.5C 2310.88,2541.62 2290.88,2561.12 2253.5,2563C 2205.83,2563.5 2158.17,2563.67 2110.5,2563.5C 2110.24,2562.02 2110.57,2560.69 2111.5,2559.5C 2135.2,2557.5 2146.37,2544.5 2145,2520.5C 2145.67,2474.83 2145.67,2429.17 2145,2383.5C 2146.1,2359.1 2134.6,2346.44 2110.5,2345.5C 2110.5,2343.83 2110.5,2342.17 2110.5,2340.5 Z M 2181.5,2346.5 C 2195.93,2345.93 2210.26,2346.76 2224.5,2349C 2241.08,2355.93 2250.58,2368.43 2253,2386.5C 2256.38,2405.89 2250.54,2421.72 2235.5,2434C 2228.67,2437.87 2221.34,2440.21 2213.5,2441C 2202.87,2442.24 2192.2,2442.74 2181.5,2442.5C 2181.5,2410.5 2181.5,2378.5 2181.5,2346.5 Z M 2181.5,2448.5 C 2195.17,2448.33 2208.84,2448.5 2222.5,2449C 2256.25,2451.92 2273.25,2470.42 2273.5,2504.5C 2271.06,2539.27 2252.4,2556.93 2217.5,2557.5C 2195.54,2558.7 2183.7,2548.37 2182,2526.5C 2181.5,2500.5 2181.33,2474.5 2181.5,2448.5 Z"/></g>
<g><path style="opacity:0.94" fill="#000000" d="M 2517.5,2340.5 C 2521.67,2339.96 2525.51,2340.62 2529,2342.5C 2553.86,2402.09 2578.53,2461.75 2603,2521.5C 2607.21,2532.36 2613.04,2542.19 2620.5,2551C 2628.05,2555.97 2636.38,2558.64 2645.5,2559C 2646.38,2560.36 2646.71,2561.86 2646.5,2563.5C 2610.5,2563.5 2574.5,2563.5 2538.5,2563.5C 2538.29,2561.86 2538.62,2560.36 2539.5,2559C 2549.51,2559 2558.01,2555.5 2565,2548.5C 2568.67,2542.14 2569.34,2535.47 2567,2528.5C 2560.24,2510.48 2553.07,2492.65 2545.5,2475C 2521.83,2474.17 2498.16,2474.33 2474.5,2475.5C 2469.43,2488.54 2464.26,2501.54 2459,2514.5C 2455.37,2523.62 2454.37,2532.95 2456,2542.5C 2460.75,2552.97 2468.91,2558.63 2480.5,2559.5C 2481.43,2560.69 2481.76,2562.02 2481.5,2563.5C 2456.83,2563.5 2432.17,2563.5 2407.5,2563.5C 2407.29,2561.86 2407.62,2560.36 2408.5,2559C 2419.16,2558.01 2427.66,2553.17 2434,2544.5C 2439.43,2536.65 2444.09,2528.32 2448,2519.5C 2471.66,2460.01 2494.83,2400.34 2517.5,2340.5 Z M 2508.5,2385.5 C 2509.79,2386.06 2510.62,2387.06 2511,2388.5C 2521.31,2414.43 2531.81,2440.26 2542.5,2466C 2520.83,2466.67 2499.17,2466.67 2477.5,2466C 2488.25,2439.33 2498.59,2412.49 2508.5,2385.5 Z"/></g>
<g><path style="opacity:0.962" fill="#000000" d="M 2943.5,2559.5 C 2943.5,2560.83 2943.5,2562.17 2943.5,2563.5C 2925.15,2563.83 2906.82,2563.5 2888.5,2562.5C 2878.61,2540.38 2868.44,2518.38 2858,2496.5C 2853.17,2487.5 2847.83,2478.83 2842,2470.5C 2832.27,2457.75 2819.43,2452.75 2803.5,2455.5C 2803.33,2479.17 2803.5,2502.84 2804,2526.5C 2804.83,2547.33 2815.67,2558.17 2836.5,2559C 2837.38,2560.36 2837.71,2561.86 2837.5,2563.5C 2802.83,2563.5 2768.17,2563.5 2733.5,2563.5C 2733.29,2561.86 2733.62,2560.36 2734.5,2559C 2757.25,2557.06 2768.09,2544.56 2767,2521.5C 2767.67,2475.17 2767.67,2428.83 2767,2382.5C 2767.78,2359.12 2756.61,2346.79 2733.5,2345.5C 2733.5,2343.83 2733.5,2342.17 2733.5,2340.5C 2773.86,2340.06 2814.19,2340.56 2854.5,2342C 2900.15,2348.16 2917.99,2373.66 2908,2418.5C 2898.76,2436.88 2883.93,2447.88 2863.5,2451.5C 2870.71,2454.87 2876.54,2459.87 2881,2466.5C 2894.3,2494.43 2908.63,2521.77 2924,2548.5C 2928.98,2554.91 2935.48,2558.57 2943.5,2559.5 Z M 2803.5,2346.5 C 2816.35,2345.83 2829.02,2346.99 2841.5,2350C 2861.65,2359.93 2871.65,2376.27 2871.5,2399C 2870.73,2422.4 2859.73,2438.73 2838.5,2448C 2826.93,2450.05 2815.26,2450.88 2803.5,2450.5C 2803.5,2415.83 2803.5,2381.17 2803.5,2346.5 Z"/></g>
</svg>
